<svg width="564" height="673" viewBox="0 0 564 673" fill="none" xmlns="http://www.w3.org/2000/svg">
<rect x="455.552" y="427.092" width="268.357" height="302.218" rx="26" transform="rotate(134.04 455.552 427.092)" fill="white"/>
<rect x="463.139" y="216.999" width="268.357" height="235.914" rx="26" transform="rotate(134.04 463.139 216.999)" fill="white"/>
<path d="M251.5 604V604C258.502 609.092 267.336 610.974 275.805 609.178L279 608.5" stroke="black" stroke-width="2"/>
<path d="M228.414 4.437L4.12801 240.161C1.84691 242.559 1.9376 246.351 4.33071 248.636L240.704 474.397C243.084 476.67 246.849 476.602 249.146 474.245L297.752 424.359C300.088 421.962 300.011 418.117 297.58 415.815L118.352 246.121C115.948 243.844 115.842 240.05 118.116 237.643L285.413 60.5692C287.65 58.2014 287.59 54.4811 285.276 52.1877L236.985 4.31194C234.598 1.94498 230.731 2.00139 228.414 4.437Z" fill="url(#paint0_linear_440_45)" stroke="black"/>
<path d="M335.05 665.543L550.492 428.41C552.709 425.969 552.541 422.197 550.117 419.962L310.885 199.542C308.458 197.306 304.681 197.449 302.431 199.863L255.631 250.067C253.355 252.508 253.509 256.336 255.973 258.587L438.073 424.957C440.518 427.19 440.691 430.982 438.46 433.429L276.033 611.574C273.804 614.02 273.975 617.809 276.416 620.043L326.558 665.934C329.009 668.177 332.816 668.002 335.05 665.543Z" fill="url(#paint1_linear_440_45)" stroke="black"/>
<path d="M111 350.5L70.9095 392.275C60.1935 403.441 60.5686 421.183 71.747 431.887L251.5 604" stroke="black" stroke-width="2"/>
<path d="M400.98 282.849L444.142 235.247C454.352 223.987 453.713 206.637 442.703 196.157L312.154 71.9054C308.772 68.6863 304.638 66.3641 300.129 65.1502L298.68 64.7601C295.583 63.9262 292.366 63.6308 289.168 63.8865L281.5 64.5" stroke="black" stroke-width="2"/>
<defs>
<linearGradient id="paint0_linear_440_45" x1="247.021" y1="13.4643" x2="241.823" y2="422.991" gradientUnits="userSpaceOnUse">
<stop offset="0.149038" stop-color="#3B82F6"/>
<stop offset="0.788462" stop-color="#8B5CF6"/>
</linearGradient>
<linearGradient id="paint1_linear_440_45" x1="321.5" y1="657" x2="310.5" y2="250.5" gradientUnits="userSpaceOnUse">
<stop offset="0.149038" stop-color="#3B82F6"/>
<stop offset="0.788462" stop-color="#8B5CF6"/>
</linearGradient>
</defs>
</svg>
